<?xml version="1.0" encoding="utf-8"?>
<!-- Generator: Adobe Illustrator 14.0.0, SVG Export Plug-In . SVG Version: 6.00 Build 43363)  -->
<!DOCTYPE svg PUBLIC "-//W3C//DTD SVG 1.1//EN" "http://www.w3.org/Graphics/SVG/1.1/DTD/svg11.dtd">
<svg version="1.1" id="Layer_1" xmlns="http://www.w3.org/2000/svg" xmlns:xlink="http://www.w3.org/1999/xlink" x="0px" y="0px"
	 width="283.46px" height="283.46px" viewBox="0 0 283.46 283.46" enable-background="new 0 0 283.46 283.46" xml:space="preserve">
<g>
	<path fill="#FFFFFF" d="M102.543,79.338c-7.755-0.004-14.744,4.677-17.691,11.85c-4.013,9.766,0.649,20.935,10.414,24.948
		c9.765,4.013,20.936-0.649,24.948-10.415h34.909c3.333,15.444,16.983,26.472,32.782,26.486h18.249v4.273l0,0
		c0,7.981-6.47,14.451-14.451,14.451h-38.5c-1.586-5.682-5.707-10.313-11.166-12.549c-9.77-4.002-20.934,0.673-24.935,10.444
		c-4.003,9.77,0.673,20.934,10.443,24.936c9.769,4.002,20.934-0.673,24.935-10.444h39.223c14.822,0,26.837-12.015,26.837-26.837
		v-4.273h22.069v70.828c0,7.98-6.471,14.451-14.452,14.451h-38.5c-1.586-5.683-5.707-10.313-11.166-12.55
		c-9.77-4.002-20.935,0.674-24.936,10.443s0.674,20.934,10.443,24.936s20.934-0.673,24.936-10.443h39.223
		c14.822,0,26.839-12.015,26.839-26.837v-70.972c10.026-0.914,19.11-6.288,24.738-14.636c10.344-15.342,6.293-36.166-9.049-46.511
		c-0.115-9.661-4.14-18.863-11.155-25.507c-14.32-13.562-36.926-12.947-50.488,1.374c-2.152-0.55-4.364-0.828-6.585-0.826
		c-13.021,0.054-24.144,9.398-26.445,22.213c-10.231,4.616-17.449,14.077-19.198,25.165h-33.876
		C118.634,85.076,111.118,79.357,102.543,79.338L102.543,79.338z M169.285,215.876c3.717,0,6.729,3.013,6.729,6.729
		s-3.013,6.729-6.729,6.729s-6.731-3.013-6.731-6.729S165.568,215.876,169.285,215.876L169.285,215.876z M134.83,149.363
		c3.717,0,6.73,3.014,6.73,6.73s-3.014,6.729-6.73,6.729s-6.73-3.013-6.73-6.729S131.113,149.363,134.83,149.363L134.83,149.363z
		 M187.843,119.8c-9.138-0.086-17.186-6.034-19.949-14.745c-3.53-11.128,2.629-23.012,13.756-26.543
		c2.566-0.796,4.324-3.156,4.355-5.842c0.08-7.924,6.526-14.307,14.452-14.306c2.074,0.004,4.122,0.455,6.007,1.321
		c2.7,1.217,5.885,0.352,7.598-2.064c4.391-6.079,11.438-9.677,18.937-9.667c12.883,0.015,23.314,10.471,23.301,23.354
		c-0.002,0.793-0.043,1.585-0.124,2.374c-0.281,2.559,1.05,5.024,3.344,6.193c7.091,3.603,11.557,10.885,11.552,18.839
		c-0.007,11.663-9.468,21.113-21.13,21.107h-62.035L187.843,119.8z M102.543,105.185c-0.007,0-0.014,0-0.021,0
		c-3.717-0.011-6.72-3.034-6.708-6.75c0-3.717,3.013-6.729,6.73-6.729s6.729,3.013,6.729,6.729s-3.013,6.73-6.729,6.73V105.185z"/>
	<g>
		<path fill="#0565AA" d="M111.984,239.812v5.256c0,1.526,1.236,2.766,2.766,2.766h11.064c1.529,0,2.765-1.239,2.765-2.766v-5.256
			c3.721-2.929,5.532-6.651,5.532-11.341c0-8.84-6.464-16.595-13.829-16.595c-7.366,0-13.83,7.755-13.83,16.595
			C106.453,233.157,108.264,236.884,111.984,239.812z M120.283,217.408c4.342,0,8.297,5.275,8.297,11.063
			c0,3.28-1.327,5.635-4.309,7.638c-0.763,0.511-1.222,1.374-1.222,2.295v3.897h-5.532v-3.897c0-0.921-0.459-1.784-1.222-2.295
			c-2.982-2.003-4.31-4.357-4.31-7.638C111.984,222.684,115.939,217.408,120.283,217.408z"/>
		<rect x="117.516" y="198.046" fill="#0565AA" width="5.532" height="8.298"/>
		
			<rect x="130.2" y="203.579" transform="matrix(-0.7071 0.7071 -0.7071 -0.7071 374.8474 257.4323)" fill="#0565AA" width="7.821" height="5.532"/>
		
			<rect x="103.685" y="202.434" transform="matrix(-0.7072 0.7071 -0.7071 -0.7072 327.6269 276.994)" fill="#0565AA" width="5.532" height="7.821"/>
	</g>
	<path fill="#0565AA" d="M66.38,78.973c0-1.527-1.236-2.766-2.766-2.766H52.551c-1.529,0-2.766,1.239-2.766,2.766v35.957h-5.532
		V84.505c0-1.527-1.236-2.767-2.767-2.767H30.423c-1.529,0-2.765,1.239-2.765,2.767v30.425h-5.532V90.037
		c0-1.527-1.236-2.766-2.766-2.766H8.296c-1.529,0-2.766,1.239-2.766,2.766v24.893h-5.532v5.532h8.298h11.063h11.063h11.064h11.064
		h11.063h8.298v-5.532H66.38V78.973z M11.062,114.93V92.803h5.532v22.127H11.062z M33.189,114.93V87.271h5.531v27.659H33.189z
		 M55.317,114.93V81.739h5.532v33.191H55.317z"/>
	<path fill="#0565AA" d="M82.303,131.175c-7.994,0-16.596,2.598-16.596,8.298v33.192c0,5.7,8.602,8.297,16.596,8.297
		s16.596-2.597,16.596-8.297v-33.192C98.899,133.772,90.297,131.175,82.303,131.175z M82.303,136.707
		c6.531,0,10.287,1.87,10.967,2.769c-0.7,0.905-4.461,2.763-10.967,2.763c-6.719,0-10.519-1.982-11.011-2.711
		C71.868,138.652,75.651,136.707,82.303,136.707z M93.367,150.418c-0.437,0.847-4.262,2.885-11.064,2.885
		c-6.801,0-10.626-2.038-11.063-2.885v-4.559c6.24,2.59,15.887,2.59,22.127,0V150.418z M71.24,156.913
		c3.12,1.297,7.161,1.922,11.063,1.922c3.903,0,7.944-0.625,11.064-1.922v4.567c-0.437,0.848-4.262,2.887-11.064,2.887
		c-6.801,0-10.626-2.039-11.063-2.885V156.913z M82.303,175.432c-6.871,0-10.715-2.086-11.063-2.767v-4.688
		c3.12,1.297,7.161,1.923,11.063,1.923c3.903,0,7.944-0.626,11.064-1.923v4.586C92.875,173.424,89.047,175.432,82.303,175.432z"/>
</g>
</svg>
