<?xml version="1.0" encoding="utf-8"?>
<!-- Generator: Adobe Illustrator 14.0.0, SVG Export Plug-In . SVG Version: 6.00 Build 43363)  -->
<!DOCTYPE svg PUBLIC "-//W3C//DTD SVG 1.1//EN" "http://www.w3.org/Graphics/SVG/1.1/DTD/svg11.dtd">
<svg version="1.1" id="Layer_1" xmlns="http://www.w3.org/2000/svg" xmlns:xlink="http://www.w3.org/1999/xlink" x="0px" y="0px"
	 width="283.46px" height="283.46px" viewBox="0 0 283.46 283.46" enable-background="new 0 0 283.46 283.46" xml:space="preserve">
<g>
	<path fill="#5EC4B6" d="M231.906,196.378l-30.377-10.57c-2.232-0.768-4.701-0.142-6.295,1.582
		c-14.883,16.264-33.886,25.205-53.503,25.205c-19.618,0-38.622-8.953-53.492-25.205c-1.594-1.724-4.062-2.35-6.295-1.582
		l-30.377,10.57C20.716,207.091,0,236.24,0,268.885v8.669c0,3.271,2.646,5.906,5.906,5.906h271.648c3.26,0,5.906-2.646,5.906-5.906
		v-8.669C283.46,236.24,262.744,207.091,231.906,196.378z"/>
	<g>
		<path fill="#5EC4B6" d="M124.014,118.108h-11.811c-3.26,0-5.905-2.634-5.905-5.905c0-3.272,2.646-5.906,5.905-5.906h11.811
			c3.26,0,5.905,2.646,5.905,5.906C129.919,115.463,127.274,118.108,124.014,118.108z"/>
	</g>
	<g>
		<path fill="#5EC4B6" d="M171.257,118.108h-11.811c-3.26,0-5.906-2.634-5.906-5.905c0-3.272,2.646-5.906,5.906-5.906h11.811
			c3.26,0,5.905,2.646,5.905,5.906C177.163,115.463,174.517,118.108,171.257,118.108z"/>
	</g>
	<g>
		<path fill="#5EC4B6" d="M141.73,200.785c-29.102,0-54.956-23.504-65.692-59.078c-9.732-0.591-16.984-13.075-16.984-29.503
			c0-13.382,4.807-24.142,11.858-27.992c-0.036-0.508-0.047-1.016-0.047-1.536V64.959c0-3.26,2.646-5.905,5.905-5.905
			s5.906,2.646,5.906,5.905v17.716c0,1.334,0.165,2.622,0.307,3.921l0.166,1.476c0.189,1.76-0.437,3.52-1.689,4.784
			c-1.252,1.264-3.047,1.831-4.771,1.712c-0.059,0-0.118-0.012-0.177-0.023c-1.665,0.626-5.646,6.838-5.646,17.657
			c0,11.433,4.441,17.716,5.905,17.716c1.595-0.992,3.732-1.299,5.516-0.59c1.736,0.708,3.213,2.079,3.685,3.921
			c8.268,33.33,30.673,55.723,55.759,55.723c25.085,0,47.492-22.394,55.771-55.723c0.46-1.831,1.76-3.331,3.508-4.051
			c1.748-0.721,3.732-0.543,5.338,0.46c1.854,0.425,6.248-6.047,6.248-17.456c0-10.831-3.98-17.031-5.657-17.669
			c-0.06,0.012-0.118,0.012-0.177,0.024c-1.76,0.13-3.52-0.449-4.771-1.713c-1.24-1.252-1.867-3.012-1.689-4.783l0.165-1.476
			c0.153-1.288,0.319-2.575,0.319-3.91V64.959c0-3.26,2.646-5.905,5.905-5.905s5.905,2.646,5.905,5.905v17.716
			c0,0.626-0.023,1.252-0.059,1.878c7.275,4.016,11.869,14.586,11.869,27.649c0,16.429-7.252,28.913-16.984,29.503
			C196.686,177.281,170.832,200.785,141.73,200.785z"/>
	</g>
	<path fill="#5EC4B6" d="M242.784,11.846L136.486,0.036c-0.721-0.083-1.406-0.036-2.091,0.142L39.909,23.799
		c-2.776,0.697-4.654,3.271-4.465,6.13c0.201,2.846,2.398,5.161,5.232,5.468l106.297,11.811c0.225,0.023,0.438,0.035,0.662,0.035
		c0.484,0,0.956-0.059,1.429-0.177l94.486-23.622c2.776-0.697,4.653-3.271,4.465-6.129
		C247.815,14.468,245.619,12.165,242.784,11.846z"/>
	<g>
		<path fill="#5EC4B6" d="M149.041,47.078l63.555-15.886v-7.571c0-3.26-2.646-5.905-5.905-5.905s-5.905,2.646-5.905,5.905v0.271
			L82.617,29.267c-0.142-3.142-2.681-5.646-5.847-5.646c-3.26,0-5.905,2.646-5.905,5.905v9.213l76.771,8.503
			C148.121,47.243,148.592,47.184,149.041,47.078z"/>
		<path fill="#5EC4B6" d="M151.923,58.522c-1.371,0.354-2.823,0.532-4.287,0.532c-0.674,0-1.323-0.036-1.996-0.118l-74.775-8.303
			v14.327c0,2.032,1.051,3.921,2.764,4.996c0.839,0.531,20.811,12.72,68.102,12.72c47.291,0,67.263-12.201,68.101-12.72
			c1.713-1.075,2.764-2.964,2.764-4.996V43.357L151.923,58.522z"/>
	</g>
	<g>
		<polyline fill="#5EC4B6" points="242.123,17.716 242.123,64.959 230.312,76.771 242.123,100.392 253.933,76.771 242.123,64.959 		
			"/>
		<path fill="#5EC4B6" d="M242.123,106.297c-2.232,0-4.275-1.264-5.279-3.26l-11.811-23.622c-1.146-2.268-0.697-5.02,1.109-6.815
			l10.074-10.086V17.716c0-3.26,2.646-5.905,5.906-5.905s5.905,2.646,5.905,5.905v44.798l10.087,10.086
			c1.795,1.795,2.244,4.547,1.109,6.815l-11.811,23.622C246.398,105.034,244.355,106.297,242.123,106.297z M237.493,77.94
			l4.63,9.248l4.629-9.248l-4.629-4.63L237.493,77.94z"/>
	</g>
</g>
</svg>
