<?xml version="1.0" encoding="utf-8"?>
<!-- Generator: Adobe Illustrator 14.0.0, SVG Export Plug-In . SVG Version: 6.00 Build 43363)  -->
<!DOCTYPE svg PUBLIC "-//W3C//DTD SVG 1.1//EN" "http://www.w3.org/Graphics/SVG/1.1/DTD/svg11.dtd">
<svg version="1.1" id="Layer_1" xmlns="http://www.w3.org/2000/svg" xmlns:xlink="http://www.w3.org/1999/xlink" x="0px" y="0px"
	 width="283.46px" height="283.46px" viewBox="0 0 283.46 283.46" enable-background="new 0 0 283.46 283.46" xml:space="preserve">
<g>
	<path fill="#5EC4B6" d="M283.283,276.114l-9.177-36.696c-2.103-8.374-7.724-15.401-15.448-19.252l-61.145-30.566
		c-1.441-0.721-3.143-0.814-4.678-0.26s-2.752,1.725-3.401,3.225l-30.413,70.971l-4.477-8.94
		c3.957-5.421,10.808-16.039,10.808-24.283c0-10.925-9.06-17.716-23.622-17.716c-14.563,0-23.622,6.791-23.622,17.716
		c0,8.244,6.851,18.862,10.795,24.271l-4.477,8.94l-30.413-70.971c-0.65-1.5-1.866-2.67-3.402-3.225
		c-1.535-0.543-3.212-0.461-4.677,0.26l-61.133,30.578c-7.713,3.862-13.347,10.878-15.449,19.252l-9.177,36.696
		c-0.437,1.76-0.047,3.638,1.075,5.067c1.11,1.44,2.835,2.279,4.654,2.279h271.648c1.819,0,3.544-0.839,4.666-2.268
		C283.33,279.763,283.72,277.885,283.283,276.114z"/>
	<g>
		<path fill="#5EC4B6" d="M141.73,200.785c-29.09,0-54.933-23.504-65.657-59.066c-9.744-0.567-17.02-13.063-17.02-29.515
			c0-5.303,0.792-10.477,2.292-14.964c1.027-3.095,4.37-4.772,7.464-3.732c3.106,1.027,4.771,4.382,3.744,7.464
			c-1.11,3.307-1.689,7.193-1.689,11.232c0,11.433,4.429,17.716,5.905,17.716c1.606-0.992,3.768-1.311,5.528-0.59
			c1.748,0.708,3.236,2.079,3.697,3.909c8.268,33.342,30.661,55.735,55.735,55.735c25.074,0,47.467-22.394,55.735-55.735
			c0.461-1.831,1.761-3.342,3.508-4.051c1.748-0.709,3.744-0.532,5.339,0.46c2.031,0.26,6.283-6.023,6.283-17.444
			c0-4.04-0.578-7.925-1.689-11.232c-1.027-3.094,0.639-6.437,3.732-7.464c3.095-1.04,6.438,0.638,7.465,3.732
			c1.512,4.488,2.303,9.661,2.303,14.964c0,16.452-7.275,28.948-17.02,29.515C196.663,177.281,170.82,200.785,141.73,200.785z"/>
	</g>
	<path fill="#5EC4B6" d="M141.73,0c-45.59,0-82.676,37.086-82.676,82.676c0,5.48,0.673,11.102,2.126,17.705
		c0.591,2.705,2.988,4.642,5.764,4.642c6.685,0,14.764,1.205,14.846,1.216c0.343,0.047,0.638,0.071,1.004,0.059
		c3.225,0.047,6.024-2.598,6.024-5.905c0-0.721-0.13-1.394-0.354-2.031c-0.721-11.788,0.023-23.705,1.666-27.496h0.897
		c20.421,0,30.602-6.484,35.303-14.669c12.732,12.567,38.338,24.685,63.093,26.291c1.405,9.921,5.752,19.795,5.976,20.291
		c0.945,2.162,3.072,3.52,5.387,3.52c0.153,0,0.318,0,0.484-0.012L217,104.999c2.587-0.213,4.725-2.091,5.292-4.618
		c1.44-6.603,2.113-12.224,2.113-17.705C224.406,37.086,187.32,0,141.73,0z"/>
	<g>
		<path fill="#5EC4B6" d="M124.014,118.108h-11.811c-3.26,0-5.905-2.646-5.905-5.905c0-3.26,2.646-5.906,5.905-5.906h11.811
			c3.26,0,5.905,2.646,5.905,5.906C129.919,115.463,127.274,118.108,124.014,118.108z"/>
	</g>
	<g>
		<path fill="#5EC4B6" d="M171.257,118.108h-11.811c-3.26,0-5.906-2.646-5.906-5.905c0-3.26,2.646-5.906,5.906-5.906h11.811
			c3.26,0,5.905,2.646,5.905,5.906C177.163,115.463,174.517,118.108,171.257,118.108z"/>
	</g>
</g>
</svg>
