<?xml version="1.0" encoding="utf-8"?>
<!-- Generator: Adobe Illustrator 14.0.0, SVG Export Plug-In . SVG Version: 6.00 Build 43363)  -->
<!DOCTYPE svg PUBLIC "-//W3C//DTD SVG 1.1//EN" "http://www.w3.org/Graphics/SVG/1.1/DTD/svg11.dtd">
<svg version="1.1" id="Layer_1" xmlns="http://www.w3.org/2000/svg" xmlns:xlink="http://www.w3.org/1999/xlink" x="0px" y="0px"
	 width="283.46px" height="283.46px" viewBox="0 0 283.46 283.46" enable-background="new 0 0 283.46 283.46" xml:space="preserve">
<path fill="#0064A9" d="M184.411,146.247l-0.676,10.299c-0.168,2.7,1.351,5.232,3.714,6.414l7.598,3.714v75.122
	c0,3.714,3.038,6.752,6.752,6.752c1.182,0,2.194-0.338,3.207-0.844l25.491-13.505l25.491,13.505c3.376,1.688,7.427,0.506,9.115-2.87
	c0.507-1.013,0.844-2.025,0.844-3.207v-74.784l7.597-3.714c2.363-1.182,3.883-3.714,3.714-6.415l-0.675-10.467l5.739-8.609
	c1.52-2.194,1.52-5.233,0-7.428l-5.739-8.609l0.675-10.298c0.169-2.7-1.351-5.232-3.714-6.415l-9.284-4.726l-4.728-9.285
	c-1.182-2.364-3.714-3.883-6.414-3.714l-10.298,0.675l-8.609-5.739c-2.194-1.52-5.233-1.52-7.428,0l-8.609,5.571l-10.298-0.507
	c-2.701-0.169-5.233,1.35-6.415,3.714l-4.727,9.285l-9.285,4.726c-2.363,1.183-3.882,3.715-3.714,6.415l0.676,10.298l-5.739,8.609
	c-1.52,2.194-1.52,5.233,0,7.428L184.411,146.247z M233.704,220.694c-2.025-1.014-4.389-1.014-6.246,0l-18.907,9.96v-50.138
	l9.623-0.506l8.609,5.738c2.194,1.521,5.233,1.521,7.428,0l8.609-5.738l9.622,0.506v50.138L233.704,220.694z M196.903,127.003
	c0.844-1.182,1.182-2.701,1.013-4.052l-0.507-8.103l7.26-3.714c1.35-0.676,2.363-1.688,3.038-3.039l3.714-7.26l8.104,0.508
	c1.52,0.168,2.869-0.339,4.22-1.014l6.753-4.39l6.752,4.39c1.182,0.844,2.701,1.182,4.052,1.014l8.104-0.508l3.714,7.26
	c0.675,1.351,1.688,2.363,3.038,3.039l7.26,3.714l-0.507,8.103c-0.169,1.52,0.337,2.87,1.182,4.052l4.558,6.752l-4.558,6.753
	c-0.845,1.182-1.182,2.701-1.182,4.052l0.507,8.271l-7.26,3.715c-1.351,0.674-2.363,1.688-3.038,3.038l-3.714,7.259l-7.935-0.338
	c-1.52-0.169-2.87,0.338-4.052,1.182l-6.752,4.559l-6.753-4.559c-1.182-0.675-2.363-1.182-3.714-1.182h-0.338l-8.103,0.507
	l-3.714-7.26c-0.676-1.35-1.688-2.363-3.039-3.038L197.578,153l0.507-8.104c0.169-1.519-0.338-2.869-1.013-4.051l-4.39-6.753
	L196.903,127.003z"/>
<g>
	<path fill="#60C4B6" d="M182.219,176.137c-1.958,3.317-5.311,5.598-9.234,5.598c-6.487,0-10.812-4.325-10.812-10.812
		s-4.325-10.812-10.812-10.812s-10.812,4.324-10.812,10.812c0,14.055,9.73,25.948,21.624,30.273c0,1.081,0,2.162,0,3.243
		c0,0,0,1.081,0,2.162c0,11.893-9.731,21.623-21.624,21.623s-21.623-9.73-21.623-21.623V76.86c0-11.893,9.73-21.623,21.623-21.623
		c9.73,0,18.38,6.486,20.542,16.217c-4.324,2.163-8.649,1.082-11.893-2.162c-4.325-4.324-10.812-4.324-15.137,0
		c-4.324,4.325-4.324,10.812,0,15.137c6.487,6.486,15.137,9.73,22.705,9.73c5.406,0,9.73-1.081,15.136-3.244
		c2.329,1.164,4.516,2.749,6.366,4.698c1.038-0.826,2.17-1.557,3.389-2.171l5.538-2.819l2.819-5.536
		c1.003-1.991,2.336-3.766,3.91-5.273c-2.939-3.303-6.349-6.153-10.129-8.359c-3.244-21.623-21.623-37.841-43.247-37.841
		c-12.974,0-24.866,5.406-32.435,15.137c-7.568-9.73-19.461-15.137-32.436-15.137c-21.623,0-40.003,16.218-43.246,37.841
		C19.458,79.022,10.81,94.159,10.81,109.295c0,1.081,0,2.162,0,4.325c-6.487,7.568-10.812,17.299-10.812,28.11
		s4.324,20.542,10.812,28.11c0,0,0,0,0,1.081v1.081c0,1.082,0,1.082,0,2.162c0,15.137,8.648,30.273,21.623,37.841
		c3.243,21.624,21.623,37.841,43.246,37.841c12.975,0,24.867-5.405,32.436-15.136c7.568,8.649,19.461,15.136,32.435,15.136
		c19.286,0,35.982-12.906,41.67-31.037V176.137z M97.303,206.601c0,11.893-9.73,21.623-21.624,21.623
		c-11.893,0-21.623-9.73-21.623-21.623c0,0,0-1.081,0-2.162s0-2.162,0-3.243c12.974-4.325,21.623-16.219,21.623-30.273
		c0-6.487-4.324-10.812-10.812-10.812c-6.486,0-10.812,4.324-10.812,10.812s-4.324,10.812-10.812,10.812
		c-5.405,0-9.73-4.325-10.812-9.731c0-1.081,0-2.162,0-3.243c1.081-4.325,0-8.649-3.243-10.812
		c-4.325-4.324-7.569-9.73-7.569-16.218s4.325-10.812,10.812-10.812s10.812,4.324,10.812,10.812s4.325,10.812,10.812,10.812
		c6.487,0,10.812-4.324,10.812-10.812c0-18.38-14.055-32.436-32.435-32.436c0-8.648,5.406-15.136,11.893-19.461
		c5.406,3.244,9.73,4.325,15.137,4.325c8.649,0,16.217-3.244,22.704-9.73c4.325-4.325,4.325-10.812,0-15.137
		c-4.325-4.324-10.812-4.324-15.137,0c-3.243,3.244-8.648,4.325-11.893,2.162c2.163-9.73,10.812-16.217,20.542-16.217
		c11.894,0,21.624,9.73,21.624,21.623V206.601z"/>
	<path fill="#60C4B6" d="M151.36,141.73c0,6.487,4.325,10.812,10.812,10.812c3.659,0,6.63-1.376,8.524-3.74l-2.653-3.979
		c-4.454-6.538-4.454-15.26,0-21.797l3.282-4.923l-0.391-5.96l-0.001-0.02l-0.001-0.021c-0.007-0.101-0.009-0.2-0.014-0.3
		C159.243,116.63,151.36,127.967,151.36,141.73z"/>
</g>
<g>
	<path fill="#0064A9" d="M230.925,161.44c15.193,0,27.516-12.323,27.516-27.517s-12.322-27.517-27.516-27.517
		s-27.517,12.323-27.517,27.517S215.731,161.44,230.925,161.44z M230.925,119.913c7.766,0,14.011,6.245,14.011,14.011
		s-6.245,14.012-14.011,14.012s-14.012-6.246-14.012-14.012l0,0C216.913,126.158,223.159,119.913,230.925,119.913z"/>
</g>
</svg>
