<?xml version="1.0" encoding="utf-8"?>
<!-- Generator: Adobe Illustrator 14.0.0, SVG Export Plug-In . SVG Version: 6.00 Build 43363)  -->
<!DOCTYPE svg PUBLIC "-//W3C//DTD SVG 1.1//EN" "http://www.w3.org/Graphics/SVG/1.1/DTD/svg11.dtd">
<svg version="1.1" id="Layer_1" xmlns="http://www.w3.org/2000/svg" xmlns:xlink="http://www.w3.org/1999/xlink" x="0px" y="0px"
	 width="283.46px" height="283.46px" viewBox="0 0 283.46 283.46" enable-background="new 0 0 283.46 283.46" xml:space="preserve">
<g>
	<path fill="#60C4B6" d="M120.703,180.203c0.291-4.779,2.816-9.502,6.461-12.856l24.316-22.531
		c3.426-3.312,8.124-5.207,12.938-5.207h7.936c0.369-1.523,0.702-3.073,0.979-4.661c10.059-1.872,18.712-6.55,25.729-13.801
		c19.885-20.35,18.947-55.437,18.947-56.841c-0.233-5.847-5.146-10.526-10.761-10.526h-32.514v-4.444
		c0-6.783-5.146-11.929-11.694-11.929H54.974c-6.549,0-11.695,5.146-11.695,11.929v4.444H10.765c-5.614,0-10.526,4.679-10.76,10.526
		c0,1.404-0.937,36.491,18.713,57.075c7.017,7.251,15.672,11.93,25.73,13.567c2.807,14.735,9.122,26.665,19.181,35.553
		c8.889,7.955,20.35,13.101,33.215,14.974v36.723H79.535c-6.551,0-11.931,5.382-11.931,11.933c0,6.549,5.38,11.928,11.931,11.928
		h41.168C120.703,232.811,120.598,181.943,120.703,180.203z M174.737,75.299h21.286c-1.871,17.777-8.654,27.133-12.396,31.11
		c-2.339,2.338-5.38,4.444-8.89,5.847V75.299z M43.279,112.257c-3.274-1.403-6.55-3.509-8.889-5.847
		c-8.42-8.655-11.228-22.689-12.396-31.11H43.28L43.279,112.257L43.279,112.257z M67.138,119.275v-58.01h83.741v58.01
		c0,20.818-10.994,43.273-41.871,43.273S67.138,140.093,67.138,119.275z"/>
</g>
<path fill="#0064A9" d="M273.342,218.023l-22.828,15.004H223.61v-6.361h28.862c1.304,0,2.771-0.487,3.75-1.303l24.458-17.775
	c2.937-2.118,3.587-6.196,1.469-9.131c-2.12-2.934-6.196-3.588-9.133-1.467l-22.827,16.469H223.61v-6.36h28.862
	c1.467,0,2.936-0.486,4.075-1.468l24.459-19.401c2.771-2.283,3.261-6.358,1.143-9.131c-2.282-2.772-6.359-3.265-9.133-1.144
	l-22.664,17.938H223.61v-6.358h28.862c1.63,0,3.261-0.654,4.401-1.796l24.459-22.666c1.957-1.793,2.607-4.727,1.631-7.174
	c-0.979-2.444-3.424-4.073-6.033-4.073h-28.208c-1.143-1.796-3.1-2.773-5.381-2.773h-43.538c-1.63,0-3.261,0.65-4.402,1.793
	l-1.142,1.141h-29.84c-1.63,0-3.261,0.654-4.401,1.795l-24.459,22.664c-1.957,1.795-2.608,4.729-1.63,7.176
	c0.979,2.445,3.424,4.076,6.033,4.076h26.904v6.359h-26.904c-3.587,0-6.522,2.936-6.522,6.521c0,3.588,2.936,6.522,6.522,6.522
	h26.904v6.358h-26.904c-3.587,0-6.522,2.937-6.522,6.523c0,3.586,2.936,6.521,6.522,6.521h26.904v6.358h-26.904
	c-3.587,0-6.522,2.935-6.522,6.521c0,3.588,2.936,6.521,6.522,6.521h112.511c1.304,0,2.444-0.324,3.587-1.141l24.458-16.143
	c2.937-1.957,3.913-6.033,1.795-8.968C280.354,216.882,276.441,215.904,273.342,218.023z M249.862,174.65h-17.284l10.272-9.621
	h17.283L249.862,174.65z M167.028,165.193h13.208l-10.272,9.621h-13.206L167.028,165.193z M179.91,183.128l22.503-20.871h24.457
	l-14.187,13.209c-1.304,1.306-2.12,2.935-2.12,4.729v52.668H179.91V183.128z"/>
</svg>
