<?xml version="1.0" encoding="utf-8"?>
<!-- Generator: Adobe Illustrator 14.0.0, SVG Export Plug-In . SVG Version: 6.00 Build 43363)  -->
<!DOCTYPE svg PUBLIC "-//W3C//DTD SVG 1.1//EN" "http://www.w3.org/Graphics/SVG/1.1/DTD/svg11.dtd">
<svg version="1.1" id="Layer_1" xmlns="http://www.w3.org/2000/svg" xmlns:xlink="http://www.w3.org/1999/xlink" x="0px" y="0px"
	 width="283.46px" height="283.46px" viewBox="0 0 283.46 283.46" enable-background="new 0 0 283.46 283.46" xml:space="preserve">
<g>
	<rect y="271.648" fill="#FFFFFF" width="283.46" height="11.812"/>
	<path fill="#FFFFFF" d="M53.149,283.46H17.716l-5.905-5.906v-88.545c0-6.531,5.315-11.847,11.846-11.847h23.551
		c6.532,0,11.846,5.315,11.846,11.847v88.545L53.149,283.46z M23.622,271.648h23.622l-0.036-82.676H23.657L23.622,271.648z"/>
	<path fill="#FFFFFF" d="M194.878,283.46h-35.432l-5.906-5.906V177.197c0-6.531,5.316-11.847,11.848-11.847h23.551
		c6.531,0,11.846,5.315,11.846,11.847v100.356L194.878,283.46z M165.353,271.648h23.621l-0.035-94.486h-23.551L165.353,271.648z"/>
	<path fill="#FFFFFF" d="M124.014,283.46H88.582l-5.905-5.906v-147.6c0-6.531,5.314-11.846,11.846-11.846h23.551
		c6.531,0,11.846,5.314,11.846,11.846v147.6L124.014,283.46z M94.487,271.648h23.622l-0.035-141.729H94.522L94.487,271.648z"/>
	<path fill="#FFFFFF" d="M265.743,283.46h-35.432l-5.906-5.906V94.521c0-6.531,5.314-11.846,11.848-11.846h23.551
		c6.531,0,11.846,5.314,11.846,11.846v183.032L265.743,283.46z M236.216,271.648h23.623l-0.035-177.162h-23.551L236.216,271.648z"/>
	<path fill="#60C4B6" d="M35.433,141.729c-13.027,0-23.622-10.594-23.622-23.621s10.594-23.622,23.622-23.622
		s23.622,10.595,23.622,23.622S48.46,141.729,35.433,141.729z M35.433,106.297c-6.508,0-11.811,5.304-11.811,11.812
		s5.303,11.811,11.811,11.811s11.811-5.303,11.811-11.811S41.94,106.297,35.433,106.297z"/>
	<path fill="#60C4B6" d="M248.028,47.243c-13.027,0-23.623-10.595-23.623-23.622S235.001,0,248.028,0s23.621,10.594,23.621,23.621
		S261.056,47.243,248.028,47.243z M248.028,11.811c-6.52,0-11.812,5.303-11.812,11.811s5.293,11.812,11.812,11.812
		s11.811-5.304,11.811-11.812S254.548,11.811,248.028,11.811z"/>
	<path fill="#60C4B6" d="M177.163,129.919c-13.027,0-23.623-10.595-23.623-23.622s10.596-23.621,23.623-23.621
		s23.621,10.594,23.621,23.621S190.19,129.919,177.163,129.919z M177.163,94.486c-6.52,0-11.811,5.303-11.811,11.811
		s5.291,11.812,11.811,11.812s11.811-5.304,11.811-11.812S183.683,94.486,177.163,94.486z"/>
	<path fill="#60C4B6" d="M106.298,82.676c-13.027,0-23.622-10.595-23.622-23.622s10.594-23.621,23.622-23.621
		s23.622,10.594,23.622,23.621S119.325,82.676,106.298,82.676z M106.298,47.243c-6.508,0-11.811,5.303-11.811,11.811
		s5.303,11.811,11.811,11.811s11.811-5.303,11.811-11.811S112.806,47.243,106.298,47.243z"/>
	
		<rect x="169.952" y="59.059" transform="matrix(-0.6511 0.759 -0.759 -0.6511 400.3444 -54.1035)" fill="#60C4B6" width="85.311" height="11.809"/>
	
		<rect x="135.834" y="51.938" transform="matrix(-0.5547 0.8321 -0.8321 -0.5547 289.1642 10.6247)" fill="#60C4B6" width="11.811" height="61.507"/>
	
		<rect x="36.617" y="82.929" transform="matrix(-0.7682 0.6402 -0.6402 -0.7682 181.659 111.8958)" fill="#60C4B6" width="67.912" height="11.811"/>
</g>
</svg>
