<?xml version="1.0" encoding="utf-8"?>
<!-- Generator: Adobe Illustrator 14.0.0, SVG Export Plug-In . SVG Version: 6.00 Build 43363)  -->
<!DOCTYPE svg PUBLIC "-//W3C//DTD SVG 1.1//EN" "http://www.w3.org/Graphics/SVG/1.1/DTD/svg11.dtd">
<svg version="1.1" id="Layer_1" xmlns="http://www.w3.org/2000/svg" xmlns:xlink="http://www.w3.org/1999/xlink" x="0px" y="0px"
	 width="425.2px" height="425.2px" viewBox="0 0 425.2 425.2" enable-background="new 0 0 425.2 425.2" xml:space="preserve">
<rect x="0.002" y="0.002" fill="#0064A9" width="425.196" height="425.196"/>
<g>
	<path fill="#FFFFFF" d="M106.544,148.886h107.468c26.236,0,48.822,15.951,58.57,38.661h52.432
		c-11.445-50.741-56.85-88.769-111.002-88.769H106.544c0,0-6.357,0-6.357,6.357c0,9.354,0,28.05,0,37.399
		C100.187,148.893,106.544,148.886,106.544,148.886z"/>
	<path fill="#5EC4B6" d="M214.012,276.314H106.544c0,0-6.357,0-6.357,6.357c0,7.918,0,27.295,0,37.393
		c0,6.357,6.357,6.357,6.357,6.357h107.468c54.152,0,99.557-38.027,111.002-88.768h-52.432
		C262.834,260.363,240.248,276.314,214.012,276.314z"/>
</g>
</svg>
