<?xml version="1.0" encoding="utf-8"?>
<!-- Generator: Adobe Illustrator 14.0.0, SVG Export Plug-In . SVG Version: 6.00 Build 43363)  -->
<!DOCTYPE svg PUBLIC "-//W3C//DTD SVG 1.1//EN" "http://www.w3.org/Graphics/SVG/1.1/DTD/svg11.dtd">
<svg version="1.1" id="Layer_1" xmlns="http://www.w3.org/2000/svg" xmlns:xlink="http://www.w3.org/1999/xlink" x="0px" y="0px"
 		viewBox="0 0 960 560" xml:space="preserve">

<g>
	<g>
		<path fill="#FFFFFF" d="M144.523,212.598v28.792c0,0,0,1.703,1.703,1.703c2.505,0,7.515,0,10.02,0
			c1.703,0,1.701-1.703,1.701-1.703v-28.792c0-7.031,4.273-13.08,10.357-15.693v-14.047
			C154.709,185.926,144.523,198.09,144.523,212.598z"/>
		<path fill="#FFFFFF" d="M181.728,182.858v14.047c6.085,2.613,10.357,8.662,10.358,15.693v28.792c0,0-0.001,1.703,1.702,1.703
			c2.121,0,7.312,0,10.018,0c1.703,0,1.703-1.703,1.703-1.703v-28.792C205.508,198.09,195.322,185.926,181.728,182.858z"/>
	</g>
	<g>
		<path fill="#FFFFFF" d="M278.216,182.104c0,0-56.116,0-57.58,0c-1.703,0-1.703,1.703-1.703,1.703s0,7.512,0,10.014
			c0,1.703,1.703,1.703,1.703,1.703s56.116,0,57.58,0c1.703,0,1.703-1.703,1.703-1.703s0-7.512,0-10.014
			C279.919,182.104,278.216,182.104,278.216,182.104z"/>
		<path fill="#FFFFFF" d="M242.715,241.39c0,1.703,1.702,1.703,1.702,1.703s7.514,0,10.018,0c1.703,0,1.703-1.703,1.703-1.703
			v-32.442h-13.423C242.715,208.948,242.715,233.278,242.715,241.39z"/>
	</g>
	<g>
		<path fill="#FFFFFF" d="M72.57,195.528h28.79c7.03,0,13.08,4.273,15.692,10.357h14.047c-3.066-13.594-15.231-23.781-29.739-23.781
			H72.57c0,0-1.703,0-1.703,1.703c0,2.506,0,7.516,0,10.02C70.867,195.53,72.57,195.528,72.57,195.528z"/>
		<path fill="#FFFFFF" d="M101.36,229.669H72.57c0,0-1.703,0-1.703,1.703c0,2.121,0,7.311,0,10.018c0,1.701,1.703,1.701,1.703,1.701
			h28.791c14.507,0,26.672-10.186,29.738-23.779h-14.047C114.44,225.396,108.39,229.669,101.36,229.669z"/>
	</g>
	<g>
		<path fill="#FFFFFF" d="M293.343,212.598c0,14.508,10.187,26.672,23.781,29.739V228.29c-6.085-2.613-10.357-8.66-10.357-15.692
			c0-7.031,4.272-13.08,10.357-15.693v-14.047C303.53,185.926,293.343,198.09,293.343,212.598z"/>
		<path fill="#FFFFFF" d="M330.548,182.858v14.047c6.085,2.611,10.359,8.662,10.359,15.693c0,7.032-4.274,13.081-10.359,15.694
			v14.045c13.595-3.066,23.782-15.23,23.782-29.739C354.331,198.09,344.143,185.924,330.548,182.858z"/>
	</g>
</g>
</svg>
