<?xml version="1.0" encoding="utf-8"?>
<!-- Generator: Adobe Illustrator 14.0.0, SVG Export Plug-In . SVG Version: 6.00 Build 43363)  -->
<!DOCTYPE svg PUBLIC "-//W3C//DTD SVG 1.1//EN" "http://www.w3.org/Graphics/SVG/1.1/DTD/svg11.dtd">
<svg version="1.1" id="Camada_1" xmlns="http://www.w3.org/2000/svg" xmlns:xlink="http://www.w3.org/1999/xlink" x="0px" y="0px"
	 width="960px" height="560px" viewBox="-267.4 -67.401 960 560" enable-background="new -267.4 -67.401 960 560"
	 xml:space="preserve">
<g>
	<g>
		<path fill="#FFFFFF" d="M-0.305,212.598v90.045c0,0,0,5.327,5.325,5.327c7.834,0,23.505,0,31.337,0c5.33,0,5.32-5.327,5.32-5.327
			v-90.045c0-21.991,13.365-40.91,32.394-49.083v-43.929C31.549,129.181-0.305,167.225-0.305,212.598z"/>
		<path fill="#FFFFFF" d="M116.052,119.585v43.929c19.031,8.173,32.394,27.09,32.396,49.083v90.045c0,0-0.002,5.327,5.323,5.327
			c6.633,0,22.865,0,31.328,0c5.327,0,5.327-5.327,5.327-5.327v-90.045C190.423,167.225,158.565,129.181,116.052,119.585z"/>
	</g>
	<g>
		<path fill="#FFFFFF" d="M417.817,117.228c0,0-175.506,0-180.083,0c-5.328,0-5.328,5.325-5.328,5.325s0,23.494,0,31.321
			c0,5.328,5.328,5.328,5.328,5.328s175.503,0,180.083,0c5.325,0,5.325-5.328,5.325-5.328s0-23.491,0-31.321
			C423.142,117.228,417.817,117.228,417.817,117.228z"/>
		<path fill="#FFFFFF" d="M306.787,302.645c0,5.327,5.322,5.327,5.322,5.327s23.501,0,31.333,0c5.327,0,5.327-5.327,5.327-5.327
			V201.182h-41.98C306.787,201.182,306.787,277.273,306.787,302.645z"/>
	</g>
	<g>
		<path fill="#FFFFFF" d="M-225.341,159.211h90.041c21.987,0,40.908,13.365,49.079,32.391h43.929
			c-9.587-42.513-47.633-74.374-93.01-74.374h-90.038c0,0-5.323,0-5.323,5.325c0,7.836,0,23.505,0,31.342
			C-230.664,159.218-225.341,159.211-225.341,159.211z"/>
		<path fill="#FFFFFF" d="M-135.301,265.988h-90.041c0,0-5.323,0-5.323,5.329c0,6.629,0,22.86,0,31.328
			c0,5.318,5.323,5.318,5.323,5.318h90.042c45.375,0,83.419-31.854,93.008-74.367h-43.932
			C-94.393,252.623-113.312,265.988-135.301,265.988z"/>
	</g>
	<g>
		<path fill="#FFFFFF" d="M465.124,212.598c0,45.371,31.858,83.415,74.379,93.01v-43.932c-19.031-8.173-32.394-27.085-32.394-49.076
			s13.362-40.91,32.394-49.083v-43.929C496.983,129.181,465.124,167.225,465.124,212.598z"/>
		<path fill="#FFFFFF" d="M581.486,119.585v43.929c19.031,8.168,32.398,27.09,32.398,49.083c0,21.992-13.367,40.908-32.398,49.082
			v43.927c42.518-9.592,74.379-47.633,74.379-93.011C655.866,167.225,624.001,129.175,581.486,119.585z"/>
	</g>
</g>
</svg>
